<mxfile host="app.diagrams.net" modified="2024-05-28T10:11:01.309Z" agent="Mozilla/5.0 (X11; Linux x86_64; rv:126.0) Gecko/20100101 Firefox/126.0" etag="zVmONRrWCha-wXP-dmwe" version="24.3.1" type="device">
  <diagram name="Page-1" id="Dou6FOlNqfl-PWtB1qvP">
    <mxGraphModel dx="2607" dy="1378" grid="1" gridSize="10" guides="1" tooltips="1" connect="1" arrows="1" fold="1" page="1" pageScale="1" pageWidth="850" pageHeight="1100" math="0" shadow="0">
      <root>
        <mxCell id="0" />
        <mxCell id="1" parent="0" />
        <mxCell id="Sqc4NOIPdQjfkk2DDo2A-74" value="" style="group" vertex="1" connectable="0" parent="1">
          <mxGeometry x="60" width="880" height="1060" as="geometry" />
        </mxCell>
        <mxCell id="Sqc4NOIPdQjfkk2DDo2A-62" value="" style="rounded=1;whiteSpace=wrap;html=1;gradientColor=none;fillColor=none;dashed=1;" vertex="1" parent="Sqc4NOIPdQjfkk2DDo2A-74">
          <mxGeometry y="190" width="880" height="870" as="geometry" />
        </mxCell>
        <mxCell id="Sqc4NOIPdQjfkk2DDo2A-49" value="" style="rounded=1;whiteSpace=wrap;html=1;gradientColor=none;fillColor=none;dashed=1;" vertex="1" parent="Sqc4NOIPdQjfkk2DDo2A-74">
          <mxGeometry x="20" y="370" width="840" height="670" as="geometry" />
        </mxCell>
        <mxCell id="Sqc4NOIPdQjfkk2DDo2A-37" style="edgeStyle=orthogonalEdgeStyle;rounded=0;orthogonalLoop=1;jettySize=auto;html=1;entryX=0.5;entryY=0;entryDx=0;entryDy=0;" edge="1" parent="Sqc4NOIPdQjfkk2DDo2A-74" source="Sqc4NOIPdQjfkk2DDo2A-1" target="Sqc4NOIPdQjfkk2DDo2A-20">
          <mxGeometry relative="1" as="geometry" />
        </mxCell>
        <mxCell id="Sqc4NOIPdQjfkk2DDo2A-1" value="" style="rounded=1;whiteSpace=wrap;html=1;dashed=1;" vertex="1" parent="Sqc4NOIPdQjfkk2DDo2A-74">
          <mxGeometry x="61" y="653" width="180" height="120" as="geometry" />
        </mxCell>
        <mxCell id="Sqc4NOIPdQjfkk2DDo2A-2" value="&lt;font style=&quot;font-size: 17px;&quot;&gt;&lt;b&gt;&lt;font style=&quot;font-size: 17px;&quot;&gt;Auth&lt;/font&gt;&lt;/b&gt;&lt;/font&gt;" style="rounded=1;whiteSpace=wrap;html=1;" vertex="1" parent="Sqc4NOIPdQjfkk2DDo2A-74">
          <mxGeometry x="76" y="668" width="150" height="90" as="geometry" />
        </mxCell>
        <mxCell id="Sqc4NOIPdQjfkk2DDo2A-8" value="" style="shape=image;verticalLabelPosition=bottom;labelBackgroundColor=default;verticalAlign=top;aspect=fixed;imageAspect=0;image=data:image/png,iVBORw0KGgoAAAANSUhEUgAAADAAAAAwCAYAAABXAvmHAAAACXBIWXMAAAsTAAALEwEAmpwYAAACV0lEQVR4nO2YPYhTQRDHF9FGRBRBEcHkzSQqp5VX2HmNIIj9IWIjaCFWoldocZ3YeZrZFw8sFEQsLKy0s1AUETsbwS8Qxbs385I7EMXPyCbchRyP3Hu5vOxG9wfTbAiZ/3ztTpTyeDyeJID4CWpptI0fq2ECO5xvmRom0AuwjKn5jiyQPLLt0785VSDjuXNNiRnP/wsBpaqMjE02Vg+lAAg/b0bNdSR5Ua7KttynStbz5X9Hri18B0jeFi7XN6hhYYRm14GWL0syd9vKtOllOgWhHEgqPQjjPQOv9V56IyA5nvQ5kpw3pVQOZyCYmtmiJhurnBQAFB1JFLA0I5rngfgOUrzbKQHFkHemEdAWIq9zmza9TifQ/CytgJLmU8oFtk5/Wos0W0Idj6cWQHy32QugeQJJvmVJnU0D4u9Icmnxpgbij7adwu6RnkOS56DlHhCfK1Kt0JE+1wUElehw1/oznexsuWh503XmG8wUcLd8ohPLTgDUcsvN6PO70enGmhQC+KxtZzHR4nGVhjJF+x2M/gOVFpMmJK7ZdhoXjLhWqNaLKgtAfNO649oY/waKDqmsYCXa60jpTGR2flEE8X2LZfMHdXxGrYQdV+tBwjo3iKj/xJBPqn4QEB9tRWNQkZdXZZJ9qp+YNzYS/8o16sQ/kHjKPKP76nxbRDSGxO9zcP4rEF83u63Km9HW/XAMND9dSUZMjQPJQyQ5vT2c26hssKsyv6m5LRFfNJsQEr8E4g/NC9D0jFmIiGvmj6jm45D4Bmq5gJX4YOmKrLfitMfj8XhUCv4C/ORt+IwyXI0AAAAASUVORK5CYII=;" vertex="1" parent="Sqc4NOIPdQjfkk2DDo2A-74">
          <mxGeometry x="206" y="630" width="28" height="28" as="geometry" />
        </mxCell>
        <mxCell id="Sqc4NOIPdQjfkk2DDo2A-9" value="" style="shape=image;verticalLabelPosition=bottom;labelBackgroundColor=default;verticalAlign=top;aspect=fixed;imageAspect=0;image=data:image/png,iVBORw0KGgoAAAANSUhEUgAAADIAAAAyCAYAAAAeP4ixAAAACXBIWXMAAAsTAAALEwEAmpwYAAADIElEQVR4nO3XbcjfUxzH8dc2dK0hxojcZdawGObC3JW7ctvQRhRNbtMiJPLA5p7N0J54QimZmzBs7h/oSpGiPTBGIpI1NUrygG3o1Odfv/5+u/5/rj34N+ddV9fvnN/5/c75nO/3fL6/P5VKpVKpVCqVyv+R/TDJNsBDOB9DfY6f0OP+rrgTC8a4rmG8isP7GVwi8Rm+wnM4rI/xH2ATPsRLeB8/4YuMuRmbce8YREzAC/gLs/t54HT8hmdwPTZgKfbokYplggsafVPwSqNdRN5tbEzCnziu18Dp2ckfs6u34UwcgXl4EZNbntuxRUhhu8b1a1tBiES+p5CXsRhn569E5BbMx1zsiQP6FHJq15gi5B5bR8jsXoNKfo9gbSJyMXbANJw1ynMdIUsTudvxcIuQ5hnZGQ/iWfyAyxr39sfreAPf4NwuIcfjKLyZ9T6FXZqTlYn+wLe4GjPSvztO6EPI47gmJrGwRch9jXZxsSdzvQhvNe4twf25LmZzRYuQgyK0Nc2OzcCRpElpdzitDyHFsju7fWGLkM7immyPx/Buo+/yrKNEa2rX+E15z4au9f3D4t7B17gW++LknJd5/0JIG0XIA432jKTEsthqMyKFE/EJfsclXUKW4228N1oNuxW/4hGsTPEptjdzlGo/pQ8hK2MkhXFYn80q3JCFdZiT/+PxREyo096czd0bPyearRyKz7EGV8WlyoGfiFO2kBp3RcgqnNMypuTz9/iykXKrU3gfxYqczXLGCh/j+RTSYjoXpf/KzLM8JaHUvI0xqTPaxCzJA2uTaqsSwkXZze5aMSvOdiQOaXnfgZn0mIaB7BSL3ivtqY13l02blY3r3Jf3H517nf6ZMaJ9bGEHy058h0vxacI5NNoBG1TmYF2iUrz86aTYcL/fOoPCeFwX5xhJfq9OGOd3FbCBZyJuTOX9Jd5dDuJuMYW5XYWyFKeTDCjjcFM+B9bH18v5uSP9i1PFl6XSLki0SoU/zwAyOUVqYeMbaE3ErYvLbUwN+ih1o1MnBpah2Oj0fAsNR+TB28pP5EqlUqlUKpVKpVLxH/gbR4StD37x4x4AAAAASUVORK5CYII=;" vertex="1" parent="Sqc4NOIPdQjfkk2DDo2A-74">
          <mxGeometry x="80" y="658" width="50" height="50" as="geometry" />
        </mxCell>
        <mxCell id="Sqc4NOIPdQjfkk2DDo2A-38" style="edgeStyle=orthogonalEdgeStyle;rounded=0;orthogonalLoop=1;jettySize=auto;html=1;entryX=0.5;entryY=0;entryDx=0;entryDy=0;" edge="1" parent="Sqc4NOIPdQjfkk2DDo2A-74" source="Sqc4NOIPdQjfkk2DDo2A-10" target="Sqc4NOIPdQjfkk2DDo2A-24">
          <mxGeometry relative="1" as="geometry" />
        </mxCell>
        <mxCell id="Sqc4NOIPdQjfkk2DDo2A-10" value="" style="rounded=1;whiteSpace=wrap;html=1;dashed=1;" vertex="1" parent="Sqc4NOIPdQjfkk2DDo2A-74">
          <mxGeometry x="340" y="653" width="180" height="120" as="geometry" />
        </mxCell>
        <mxCell id="Sqc4NOIPdQjfkk2DDo2A-11" value="&lt;font size=&quot;1&quot;&gt;&lt;b style=&quot;font-size: 17px;&quot;&gt;Announcements&lt;/b&gt;&lt;/font&gt;" style="rounded=1;whiteSpace=wrap;html=1;" vertex="1" parent="Sqc4NOIPdQjfkk2DDo2A-74">
          <mxGeometry x="355" y="668" width="150" height="90" as="geometry" />
        </mxCell>
        <mxCell id="Sqc4NOIPdQjfkk2DDo2A-12" value="" style="shape=image;verticalLabelPosition=bottom;labelBackgroundColor=default;verticalAlign=top;aspect=fixed;imageAspect=0;image=data:image/png,iVBORw0KGgoAAAANSUhEUgAAADAAAAAwCAYAAABXAvmHAAAACXBIWXMAAAsTAAALEwEAmpwYAAACV0lEQVR4nO2YPYhTQRDHF9FGRBRBEcHkzSQqp5VX2HmNIIj9IWIjaCFWoldocZ3YeZrZFw8sFEQsLKy0s1AUETsbwS8Qxbs385I7EMXPyCbchRyP3Hu5vOxG9wfTbAiZ/3ztTpTyeDyeJID4CWpptI0fq2ECO5xvmRom0AuwjKn5jiyQPLLt0785VSDjuXNNiRnP/wsBpaqMjE02Vg+lAAg/b0bNdSR5Ua7KttynStbz5X9Hri18B0jeFi7XN6hhYYRm14GWL0syd9vKtOllOgWhHEgqPQjjPQOv9V56IyA5nvQ5kpw3pVQOZyCYmtmiJhurnBQAFB1JFLA0I5rngfgOUrzbKQHFkHemEdAWIq9zmza9TifQ/CytgJLmU8oFtk5/Wos0W0Idj6cWQHy32QugeQJJvmVJnU0D4u9Icmnxpgbij7adwu6RnkOS56DlHhCfK1Kt0JE+1wUElehw1/oznexsuWh503XmG8wUcLd8ohPLTgDUcsvN6PO70enGmhQC+KxtZzHR4nGVhjJF+x2M/gOVFpMmJK7ZdhoXjLhWqNaLKgtAfNO649oY/waKDqmsYCXa60jpTGR2flEE8X2LZfMHdXxGrYQdV+tBwjo3iKj/xJBPqn4QEB9tRWNQkZdXZZJ9qp+YNzYS/8o16sQ/kHjKPKP76nxbRDSGxO9zcP4rEF83u63Km9HW/XAMND9dSUZMjQPJQyQ5vT2c26hssKsyv6m5LRFfNJsQEr8E4g/NC9D0jFmIiGvmj6jm45D4Bmq5gJX4YOmKrLfitMfj8XhUCv4C/ORt+IwyXI0AAAAASUVORK5CYII=;" vertex="1" parent="Sqc4NOIPdQjfkk2DDo2A-74">
          <mxGeometry x="485" y="630" width="28" height="28" as="geometry" />
        </mxCell>
        <mxCell id="Sqc4NOIPdQjfkk2DDo2A-39" style="edgeStyle=orthogonalEdgeStyle;rounded=0;orthogonalLoop=1;jettySize=auto;html=1;entryX=0.5;entryY=0;entryDx=0;entryDy=0;" edge="1" parent="Sqc4NOIPdQjfkk2DDo2A-74" source="Sqc4NOIPdQjfkk2DDo2A-14" target="Sqc4NOIPdQjfkk2DDo2A-28">
          <mxGeometry relative="1" as="geometry" />
        </mxCell>
        <mxCell id="Sqc4NOIPdQjfkk2DDo2A-14" value="" style="rounded=1;whiteSpace=wrap;html=1;dashed=1;" vertex="1" parent="Sqc4NOIPdQjfkk2DDo2A-74">
          <mxGeometry x="620" y="653" width="180" height="120" as="geometry" />
        </mxCell>
        <mxCell id="Sqc4NOIPdQjfkk2DDo2A-15" value="&lt;b style=&quot;font-size: 17px;&quot;&gt;Booking&lt;/b&gt;" style="rounded=1;whiteSpace=wrap;html=1;" vertex="1" parent="Sqc4NOIPdQjfkk2DDo2A-74">
          <mxGeometry x="635" y="668" width="150" height="90" as="geometry" />
        </mxCell>
        <mxCell id="Sqc4NOIPdQjfkk2DDo2A-16" value="" style="shape=image;verticalLabelPosition=bottom;labelBackgroundColor=default;verticalAlign=top;aspect=fixed;imageAspect=0;image=data:image/png,iVBORw0KGgoAAAANSUhEUgAAADAAAAAwCAYAAABXAvmHAAAACXBIWXMAAAsTAAALEwEAmpwYAAACV0lEQVR4nO2YPYhTQRDHF9FGRBRBEcHkzSQqp5VX2HmNIIj9IWIjaCFWoldocZ3YeZrZFw8sFEQsLKy0s1AUETsbwS8Qxbs385I7EMXPyCbchRyP3Hu5vOxG9wfTbAiZ/3ztTpTyeDyeJID4CWpptI0fq2ECO5xvmRom0AuwjKn5jiyQPLLt0785VSDjuXNNiRnP/wsBpaqMjE02Vg+lAAg/b0bNdSR5Ua7KttynStbz5X9Hri18B0jeFi7XN6hhYYRm14GWL0syd9vKtOllOgWhHEgqPQjjPQOv9V56IyA5nvQ5kpw3pVQOZyCYmtmiJhurnBQAFB1JFLA0I5rngfgOUrzbKQHFkHemEdAWIq9zmza9TifQ/CytgJLmU8oFtk5/Wos0W0Idj6cWQHy32QugeQJJvmVJnU0D4u9Icmnxpgbij7adwu6RnkOS56DlHhCfK1Kt0JE+1wUElehw1/oznexsuWh503XmG8wUcLd8ohPLTgDUcsvN6PO70enGmhQC+KxtZzHR4nGVhjJF+x2M/gOVFpMmJK7ZdhoXjLhWqNaLKgtAfNO649oY/waKDqmsYCXa60jpTGR2flEE8X2LZfMHdXxGrYQdV+tBwjo3iKj/xJBPqn4QEB9tRWNQkZdXZZJ9qp+YNzYS/8o16sQ/kHjKPKP76nxbRDSGxO9zcP4rEF83u63Km9HW/XAMND9dSUZMjQPJQyQ5vT2c26hssKsyv6m5LRFfNJsQEr8E4g/NC9D0jFmIiGvmj6jm45D4Bmq5gJX4YOmKrLfitMfj8XhUCv4C/ORt+IwyXI0AAAAASUVORK5CYII=;" vertex="1" parent="Sqc4NOIPdQjfkk2DDo2A-74">
          <mxGeometry x="765" y="630" width="28" height="28" as="geometry" />
        </mxCell>
        <mxCell id="Sqc4NOIPdQjfkk2DDo2A-18" value="" style="shape=image;verticalLabelPosition=bottom;labelBackgroundColor=default;verticalAlign=top;aspect=fixed;imageAspect=0;image=https://vectorseek.com/wp-content/uploads/2023/09/FastAPI-Logo-Vector.svg-.png;" vertex="1" parent="Sqc4NOIPdQjfkk2DDo2A-74">
          <mxGeometry x="639" y="674.47" width="71" height="13.07" as="geometry" />
        </mxCell>
        <mxCell id="Sqc4NOIPdQjfkk2DDo2A-19" value="" style="shape=image;verticalLabelPosition=bottom;labelBackgroundColor=default;verticalAlign=top;aspect=fixed;imageAspect=0;image=https://go.dev/blog/go-brand/Go-Logo/PNG/Go-Logo_Blue.png;" vertex="1" parent="Sqc4NOIPdQjfkk2DDo2A-74">
          <mxGeometry x="355" y="661.3199999999999" width="40" height="35.37" as="geometry" />
        </mxCell>
        <mxCell id="Sqc4NOIPdQjfkk2DDo2A-20" value="" style="rounded=1;whiteSpace=wrap;html=1;dashed=1;" vertex="1" parent="Sqc4NOIPdQjfkk2DDo2A-74">
          <mxGeometry x="60" y="898" width="180" height="120" as="geometry" />
        </mxCell>
        <mxCell id="Sqc4NOIPdQjfkk2DDo2A-21" value="&lt;font style=&quot;font-size: 17px;&quot;&gt;&lt;b&gt;&lt;font style=&quot;font-size: 17px;&quot;&gt;Auth-db&lt;/font&gt;&lt;/b&gt;&lt;/font&gt;" style="rounded=1;whiteSpace=wrap;html=1;" vertex="1" parent="Sqc4NOIPdQjfkk2DDo2A-74">
          <mxGeometry x="75" y="913" width="150" height="90" as="geometry" />
        </mxCell>
        <mxCell id="Sqc4NOIPdQjfkk2DDo2A-22" value="" style="shape=image;verticalLabelPosition=bottom;labelBackgroundColor=default;verticalAlign=top;aspect=fixed;imageAspect=0;image=data:image/png,iVBORw0KGgoAAAANSUhEUgAAADAAAAAwCAYAAABXAvmHAAAACXBIWXMAAAsTAAALEwEAmpwYAAACV0lEQVR4nO2YPYhTQRDHF9FGRBRBEcHkzSQqp5VX2HmNIIj9IWIjaCFWoldocZ3YeZrZFw8sFEQsLKy0s1AUETsbwS8Qxbs385I7EMXPyCbchRyP3Hu5vOxG9wfTbAiZ/3ztTpTyeDyeJID4CWpptI0fq2ECO5xvmRom0AuwjKn5jiyQPLLt0785VSDjuXNNiRnP/wsBpaqMjE02Vg+lAAg/b0bNdSR5Ua7KttynStbz5X9Hri18B0jeFi7XN6hhYYRm14GWL0syd9vKtOllOgWhHEgqPQjjPQOv9V56IyA5nvQ5kpw3pVQOZyCYmtmiJhurnBQAFB1JFLA0I5rngfgOUrzbKQHFkHemEdAWIq9zmza9TifQ/CytgJLmU8oFtk5/Wos0W0Idj6cWQHy32QugeQJJvmVJnU0D4u9Icmnxpgbij7adwu6RnkOS56DlHhCfK1Kt0JE+1wUElehw1/oznexsuWh503XmG8wUcLd8ohPLTgDUcsvN6PO70enGmhQC+KxtZzHR4nGVhjJF+x2M/gOVFpMmJK7ZdhoXjLhWqNaLKgtAfNO649oY/waKDqmsYCXa60jpTGR2flEE8X2LZfMHdXxGrYQdV+tBwjo3iKj/xJBPqn4QEB9tRWNQkZdXZZJ9qp+YNzYS/8o16sQ/kHjKPKP76nxbRDSGxO9zcP4rEF83u63Km9HW/XAMND9dSUZMjQPJQyQ5vT2c26hssKsyv6m5LRFfNJsQEr8E4g/NC9D0jFmIiGvmj6jm45D4Bmq5gJX4YOmKrLfitMfj8XhUCv4C/ORt+IwyXI0AAAAASUVORK5CYII=;" vertex="1" parent="Sqc4NOIPdQjfkk2DDo2A-74">
          <mxGeometry x="205" y="875" width="28" height="28" as="geometry" />
        </mxCell>
        <mxCell id="Sqc4NOIPdQjfkk2DDo2A-24" value="" style="rounded=1;whiteSpace=wrap;html=1;dashed=1;" vertex="1" parent="Sqc4NOIPdQjfkk2DDo2A-74">
          <mxGeometry x="340" y="898" width="180" height="120" as="geometry" />
        </mxCell>
        <mxCell id="Sqc4NOIPdQjfkk2DDo2A-25" value="&lt;font style=&quot;font-size: 17px;&quot;&gt;&lt;b&gt;mongodb&lt;/b&gt;&lt;/font&gt;" style="rounded=1;whiteSpace=wrap;html=1;" vertex="1" parent="Sqc4NOIPdQjfkk2DDo2A-74">
          <mxGeometry x="355" y="913" width="150" height="90" as="geometry" />
        </mxCell>
        <mxCell id="Sqc4NOIPdQjfkk2DDo2A-26" value="" style="shape=image;verticalLabelPosition=bottom;labelBackgroundColor=default;verticalAlign=top;aspect=fixed;imageAspect=0;image=data:image/png,iVBORw0KGgoAAAANSUhEUgAAADAAAAAwCAYAAABXAvmHAAAACXBIWXMAAAsTAAALEwEAmpwYAAACV0lEQVR4nO2YPYhTQRDHF9FGRBRBEcHkzSQqp5VX2HmNIIj9IWIjaCFWoldocZ3YeZrZFw8sFEQsLKy0s1AUETsbwS8Qxbs385I7EMXPyCbchRyP3Hu5vOxG9wfTbAiZ/3ztTpTyeDyeJID4CWpptI0fq2ECO5xvmRom0AuwjKn5jiyQPLLt0785VSDjuXNNiRnP/wsBpaqMjE02Vg+lAAg/b0bNdSR5Ua7KttynStbz5X9Hri18B0jeFi7XN6hhYYRm14GWL0syd9vKtOllOgWhHEgqPQjjPQOv9V56IyA5nvQ5kpw3pVQOZyCYmtmiJhurnBQAFB1JFLA0I5rngfgOUrzbKQHFkHemEdAWIq9zmza9TifQ/CytgJLmU8oFtk5/Wos0W0Idj6cWQHy32QugeQJJvmVJnU0D4u9Icmnxpgbij7adwu6RnkOS56DlHhCfK1Kt0JE+1wUElehw1/oznexsuWh503XmG8wUcLd8ohPLTgDUcsvN6PO70enGmhQC+KxtZzHR4nGVhjJF+x2M/gOVFpMmJK7ZdhoXjLhWqNaLKgtAfNO649oY/waKDqmsYCXa60jpTGR2flEE8X2LZfMHdXxGrYQdV+tBwjo3iKj/xJBPqn4QEB9tRWNQkZdXZZJ9qp+YNzYS/8o16sQ/kHjKPKP76nxbRDSGxO9zcP4rEF83u63Km9HW/XAMND9dSUZMjQPJQyQ5vT2c26hssKsyv6m5LRFfNJsQEr8E4g/NC9D0jFmIiGvmj6jm45D4Bmq5gJX4YOmKrLfitMfj8XhUCv4C/ORt+IwyXI0AAAAASUVORK5CYII=;" vertex="1" parent="Sqc4NOIPdQjfkk2DDo2A-74">
          <mxGeometry x="485" y="875" width="28" height="28" as="geometry" />
        </mxCell>
        <mxCell id="Sqc4NOIPdQjfkk2DDo2A-28" value="" style="rounded=1;whiteSpace=wrap;html=1;dashed=1;" vertex="1" parent="Sqc4NOIPdQjfkk2DDo2A-74">
          <mxGeometry x="620" y="898" width="180" height="120" as="geometry" />
        </mxCell>
        <mxCell id="Sqc4NOIPdQjfkk2DDo2A-29" value="&lt;font style=&quot;font-size: 17px;&quot;&gt;&lt;b&gt;&lt;font style=&quot;font-size: 17px;&quot;&gt;Auth&lt;/font&gt;&lt;/b&gt;&lt;/font&gt;" style="rounded=1;whiteSpace=wrap;html=1;" vertex="1" parent="Sqc4NOIPdQjfkk2DDo2A-74">
          <mxGeometry x="635" y="913" width="150" height="90" as="geometry" />
        </mxCell>
        <mxCell id="Sqc4NOIPdQjfkk2DDo2A-30" value="" style="shape=image;verticalLabelPosition=bottom;labelBackgroundColor=default;verticalAlign=top;aspect=fixed;imageAspect=0;image=data:image/png,iVBORw0KGgoAAAANSUhEUgAAADAAAAAwCAYAAABXAvmHAAAACXBIWXMAAAsTAAALEwEAmpwYAAACV0lEQVR4nO2YPYhTQRDHF9FGRBRBEcHkzSQqp5VX2HmNIIj9IWIjaCFWoldocZ3YeZrZFw8sFEQsLKy0s1AUETsbwS8Qxbs385I7EMXPyCbchRyP3Hu5vOxG9wfTbAiZ/3ztTpTyeDyeJID4CWpptI0fq2ECO5xvmRom0AuwjKn5jiyQPLLt0785VSDjuXNNiRnP/wsBpaqMjE02Vg+lAAg/b0bNdSR5Ua7KttynStbz5X9Hri18B0jeFi7XN6hhYYRm14GWL0syd9vKtOllOgWhHEgqPQjjPQOv9V56IyA5nvQ5kpw3pVQOZyCYmtmiJhurnBQAFB1JFLA0I5rngfgOUrzbKQHFkHemEdAWIq9zmza9TifQ/CytgJLmU8oFtk5/Wos0W0Idj6cWQHy32QugeQJJvmVJnU0D4u9Icmnxpgbij7adwu6RnkOS56DlHhCfK1Kt0JE+1wUElehw1/oznexsuWh503XmG8wUcLd8ohPLTgDUcsvN6PO70enGmhQC+KxtZzHR4nGVhjJF+x2M/gOVFpMmJK7ZdhoXjLhWqNaLKgtAfNO649oY/waKDqmsYCXa60jpTGR2flEE8X2LZfMHdXxGrYQdV+tBwjo3iKj/xJBPqn4QEB9tRWNQkZdXZZJ9qp+YNzYS/8o16sQ/kHjKPKP76nxbRDSGxO9zcP4rEF83u63Km9HW/XAMND9dSUZMjQPJQyQ5vT2c26hssKsyv6m5LRFfNJsQEr8E4g/NC9D0jFmIiGvmj6jm45D4Bmq5gJX4YOmKrLfitMfj8XhUCv4C/ORt+IwyXI0AAAAASUVORK5CYII=;" vertex="1" parent="Sqc4NOIPdQjfkk2DDo2A-74">
          <mxGeometry x="765" y="875" width="28" height="28" as="geometry" />
        </mxCell>
        <mxCell id="Sqc4NOIPdQjfkk2DDo2A-33" value="" style="shape=image;verticalLabelPosition=bottom;labelBackgroundColor=default;verticalAlign=top;aspect=fixed;imageAspect=0;image=https://altyra.com/wp-content/uploads/2018/11/mysql-logo-png-transparent.png;" vertex="1" parent="Sqc4NOIPdQjfkk2DDo2A-74">
          <mxGeometry x="72" y="910" width="51.35" height="35.6" as="geometry" />
        </mxCell>
        <mxCell id="Sqc4NOIPdQjfkk2DDo2A-34" value="" style="shape=image;verticalLabelPosition=bottom;labelBackgroundColor=default;verticalAlign=top;aspect=fixed;imageAspect=0;image=https://altyra.com/wp-content/uploads/2018/11/mysql-logo-png-transparent.png;" vertex="1" parent="Sqc4NOIPdQjfkk2DDo2A-74">
          <mxGeometry x="632.65" y="910.2" width="51.35" height="35.6" as="geometry" />
        </mxCell>
        <mxCell id="Sqc4NOIPdQjfkk2DDo2A-36" value="" style="shape=image;verticalLabelPosition=bottom;labelBackgroundColor=default;verticalAlign=top;aspect=fixed;imageAspect=0;image=https://upload.wikimedia.org/wikipedia/commons/0/00/Mongodb.png;" vertex="1" parent="Sqc4NOIPdQjfkk2DDo2A-74">
          <mxGeometry x="356" y="913.2" width="82.8" height="27.6" as="geometry" />
        </mxCell>
        <mxCell id="Sqc4NOIPdQjfkk2DDo2A-46" value="auth/" style="rounded=0;orthogonalLoop=1;jettySize=auto;html=1;entryX=0.5;entryY=0;entryDx=0;entryDy=0;exitX=0.5;exitY=1;exitDx=0;exitDy=0;fontStyle=1" edge="1" parent="Sqc4NOIPdQjfkk2DDo2A-74" source="Sqc4NOIPdQjfkk2DDo2A-40" target="Sqc4NOIPdQjfkk2DDo2A-1">
          <mxGeometry x="0.5958" y="-16" relative="1" as="geometry">
            <mxPoint as="offset" />
          </mxGeometry>
        </mxCell>
        <mxCell id="Sqc4NOIPdQjfkk2DDo2A-47" value="announcements/" style="edgeStyle=orthogonalEdgeStyle;rounded=0;orthogonalLoop=1;jettySize=auto;html=1;entryX=0.5;entryY=0;entryDx=0;entryDy=0;fontStyle=1" edge="1" parent="Sqc4NOIPdQjfkk2DDo2A-74" source="Sqc4NOIPdQjfkk2DDo2A-40" target="Sqc4NOIPdQjfkk2DDo2A-10">
          <mxGeometry x="0.3857" y="50" relative="1" as="geometry">
            <mxPoint as="offset" />
          </mxGeometry>
        </mxCell>
        <mxCell id="Sqc4NOIPdQjfkk2DDo2A-48" value="booking/" style="rounded=0;orthogonalLoop=1;jettySize=auto;html=1;entryX=0.5;entryY=0;entryDx=0;entryDy=0;exitX=0.5;exitY=1;exitDx=0;exitDy=0;fontStyle=1" edge="1" parent="Sqc4NOIPdQjfkk2DDo2A-74" source="Sqc4NOIPdQjfkk2DDo2A-40" target="Sqc4NOIPdQjfkk2DDo2A-14">
          <mxGeometry x="0.6486" y="21" relative="1" as="geometry">
            <mxPoint x="-1" as="offset" />
          </mxGeometry>
        </mxCell>
        <mxCell id="Sqc4NOIPdQjfkk2DDo2A-40" value="" style="rounded=1;whiteSpace=wrap;html=1;dashed=1;" vertex="1" parent="Sqc4NOIPdQjfkk2DDo2A-74">
          <mxGeometry x="340" y="393" width="180" height="120" as="geometry" />
        </mxCell>
        <mxCell id="Sqc4NOIPdQjfkk2DDo2A-41" value="&lt;b&gt;NGINX&lt;/b&gt;" style="rounded=1;whiteSpace=wrap;html=1;" vertex="1" parent="Sqc4NOIPdQjfkk2DDo2A-74">
          <mxGeometry x="355" y="408" width="150" height="90" as="geometry" />
        </mxCell>
        <mxCell id="Sqc4NOIPdQjfkk2DDo2A-42" value="" style="shape=image;verticalLabelPosition=bottom;labelBackgroundColor=default;verticalAlign=top;aspect=fixed;imageAspect=0;image=data:image/png,iVBORw0KGgoAAAANSUhEUgAAADAAAAAwCAYAAABXAvmHAAAACXBIWXMAAAsTAAALEwEAmpwYAAACV0lEQVR4nO2YPYhTQRDHF9FGRBRBEcHkzSQqp5VX2HmNIIj9IWIjaCFWoldocZ3YeZrZFw8sFEQsLKy0s1AUETsbwS8Qxbs385I7EMXPyCbchRyP3Hu5vOxG9wfTbAiZ/3ztTpTyeDyeJID4CWpptI0fq2ECO5xvmRom0AuwjKn5jiyQPLLt0785VSDjuXNNiRnP/wsBpaqMjE02Vg+lAAg/b0bNdSR5Ua7KttynStbz5X9Hri18B0jeFi7XN6hhYYRm14GWL0syd9vKtOllOgWhHEgqPQjjPQOv9V56IyA5nvQ5kpw3pVQOZyCYmtmiJhurnBQAFB1JFLA0I5rngfgOUrzbKQHFkHemEdAWIq9zmza9TifQ/CytgJLmU8oFtk5/Wos0W0Idj6cWQHy32QugeQJJvmVJnU0D4u9Icmnxpgbij7adwu6RnkOS56DlHhCfK1Kt0JE+1wUElehw1/oznexsuWh503XmG8wUcLd8ohPLTgDUcsvN6PO70enGmhQC+KxtZzHR4nGVhjJF+x2M/gOVFpMmJK7ZdhoXjLhWqNaLKgtAfNO649oY/waKDqmsYCXa60jpTGR2flEE8X2LZfMHdXxGrYQdV+tBwjo3iKj/xJBPqn4QEB9tRWNQkZdXZZJ9qp+YNzYS/8o16sQ/kHjKPKP76nxbRDSGxO9zcP4rEF83u63Km9HW/XAMND9dSUZMjQPJQyQ5vT2c26hssKsyv6m5LRFfNJsQEr8E4g/NC9D0jFmIiGvmj6jm45D4Bmq5gJX4YOmKrLfitMfj8XhUCv4C/ORt+IwyXI0AAAAASUVORK5CYII=;" vertex="1" parent="Sqc4NOIPdQjfkk2DDo2A-74">
          <mxGeometry x="485" y="370" width="28" height="28" as="geometry" />
        </mxCell>
        <mxCell id="Sqc4NOIPdQjfkk2DDo2A-43" value="" style="shape=image;verticalLabelPosition=bottom;labelBackgroundColor=default;verticalAlign=top;aspect=fixed;imageAspect=0;image=/home/tiago/Downloads/icons8-nginx-48.png;" vertex="1" parent="Sqc4NOIPdQjfkk2DDo2A-74">
          <mxGeometry x="359" y="398" width="50" height="50" as="geometry" />
        </mxCell>
        <mxCell id="Sqc4NOIPdQjfkk2DDo2A-45" value="" style="shape=image;verticalLabelPosition=bottom;labelBackgroundColor=default;verticalAlign=top;aspect=fixed;imageAspect=0;image=data:image/png,iVBORw0KGgoAAAANSUhEUgAAADAAAAAwCAYAAABXAvmHAAAACXBIWXMAAAsTAAALEwEAmpwYAAADNklEQVR4nO2Z30sUURTHh4pein5APdZDPyDqD+glmLx39t6pTcxiJA0linwshKCHqO2xx5JefNB7d2szN6EgUkkl6kUjfxRBimaF4dqaSqaou7PriTsk1Tg4u+7uOBN+4cCyO3vv9zNzDnfOvZK0pv9YOEgVEZLXJIfIPsxJBHMKIhAjrahWPSi5XXJE3owZvYk4mV80/1ckECd3ZCZvk9ymQCCwDnNSgTn9ZmH8n0CcTiBOL2sRbb3kBiFOCjCnb+2MLwFh9ANmRF0140pQ2Y05CWVq3ALkaQFX9zpm3BfybRJ5jjmdy9Y8NtWHUqNsdSDPyWgOjYPpaYznpT6OhnyHEScd+TKOl4CQHiWoylkbJ3Vkl5HnjC44ZR6b6gPX4j1uyfOVPo24qA/1nrolbQDESHS5Qcsay6En2gvxZBwmZiehbagdtIbSjIwtjjGnz0F3tAdKH5XbgUTTBrCbXExs1tjMGJxtrEgbwDxG10i37X9yBqCndLDS8I9hKK7X0gIwj6GndOcAllPf937w3y+yNWMl7AYAoc6vr4EEj3sXQOjZQLO3AYR4b8jbAELVnXe9AfDyyyvL75MLSbjWdsP9ADTkt1wfhOaTcbjUVOVuAMwpFIaL4ePEkOXvU/NTcO7xBXcDYE6hJFIGsZmY5TWj06OgNZxxNwDmFM4/uQg/49OW132a/AxFD067GwBzClXNV4yXPSuJ9x7XA2BO4Xp7AFILKcvrPQGAOYXbHdXeBsCcQv37Bm8DKFyFlsHn3gXAnBoL3ZuRLncA6KZmJJFM2E4uojB8EgbGBy3NJ9IYI2cAoofNtB1cDLGQiQXNrC4nW0rRkIsJZ/VZIy3sGnJznHpYAs0DLcaGgLjz6Y6RAQCpRIzGMjGVz0CGF1Ip5XCv36lIZL1naj5tce6uk9ye6qz0HCBj45z2Ie47JuVzhzof9YF+n9zIL+QNUr4lzrkwo7dyVB8JxGmNHD6xQ3JaSp2yP5v6QIy0FnB6yHHjS0CYijEj79I3T/oVRv2SmyRy13b9YGQScXJVi2gbJbfqSNi/3agPRuJ/jFNd5Llaq+6UvCLCyAHMaJMI8Xm1/axJypN+AeS65MjI4xVPAAAAAElFTkSuQmCC;" vertex="1" parent="Sqc4NOIPdQjfkk2DDo2A-74">
          <mxGeometry x="358" y="411" width="28" height="28" as="geometry" />
        </mxCell>
        <mxCell id="Sqc4NOIPdQjfkk2DDo2A-50" value="" style="shape=image;verticalLabelPosition=bottom;labelBackgroundColor=default;verticalAlign=top;aspect=fixed;imageAspect=0;image=https://1000logos.net/wp-content/uploads/2022/07/Kubernetes-Logo.png;" vertex="1" parent="Sqc4NOIPdQjfkk2DDo2A-74">
          <mxGeometry x="740" y="382" width="101.33" height="57" as="geometry" />
        </mxCell>
        <mxCell id="Sqc4NOIPdQjfkk2DDo2A-53" value="" style="group" vertex="1" connectable="0" parent="Sqc4NOIPdQjfkk2DDo2A-74">
          <mxGeometry x="340" width="180" height="120" as="geometry" />
        </mxCell>
        <mxCell id="Sqc4NOIPdQjfkk2DDo2A-51" value="&lt;div&gt;&lt;b&gt;&lt;font style=&quot;font-size: 17px;&quot;&gt;Yellowfy&lt;/font&gt;&lt;/b&gt;&lt;/div&gt;&lt;div&gt;&lt;b&gt;&lt;font style=&quot;font-size: 12px;&quot;&gt;(Composer)&lt;/font&gt;&lt;/b&gt;&lt;/div&gt;" style="rounded=1;whiteSpace=wrap;html=1;" vertex="1" parent="Sqc4NOIPdQjfkk2DDo2A-53">
          <mxGeometry width="180" height="120" as="geometry" />
        </mxCell>
        <mxCell id="Sqc4NOIPdQjfkk2DDo2A-52" value="" style="shape=image;verticalLabelPosition=bottom;labelBackgroundColor=default;verticalAlign=top;aspect=fixed;imageAspect=0;image=https://upload.wikimedia.org/wikipedia/commons/1/17/Google-flutter-logo.png;" vertex="1" parent="Sqc4NOIPdQjfkk2DDo2A-53">
          <mxGeometry x="4.3700000000000045" y="6" width="75.26" height="21.48" as="geometry" />
        </mxCell>
        <mxCell id="Sqc4NOIPdQjfkk2DDo2A-68" style="edgeStyle=orthogonalEdgeStyle;rounded=0;orthogonalLoop=1;jettySize=auto;html=1;entryX=0.5;entryY=0;entryDx=0;entryDy=0;" edge="1" parent="Sqc4NOIPdQjfkk2DDo2A-74" source="Sqc4NOIPdQjfkk2DDo2A-63" target="Sqc4NOIPdQjfkk2DDo2A-40">
          <mxGeometry relative="1" as="geometry" />
        </mxCell>
        <mxCell id="Sqc4NOIPdQjfkk2DDo2A-63" value="" style="rounded=1;whiteSpace=wrap;html=1;dashed=1;" vertex="1" parent="Sqc4NOIPdQjfkk2DDo2A-74">
          <mxGeometry x="340" y="223" width="180" height="120" as="geometry" />
        </mxCell>
        <mxCell id="Sqc4NOIPdQjfkk2DDo2A-64" value="&lt;b&gt;Traefik&lt;/b&gt;" style="rounded=1;whiteSpace=wrap;html=1;" vertex="1" parent="Sqc4NOIPdQjfkk2DDo2A-74">
          <mxGeometry x="355" y="238" width="150" height="90" as="geometry" />
        </mxCell>
        <mxCell id="Sqc4NOIPdQjfkk2DDo2A-65" value="" style="shape=image;verticalLabelPosition=bottom;labelBackgroundColor=default;verticalAlign=top;aspect=fixed;imageAspect=0;image=data:image/png,iVBORw0KGgoAAAANSUhEUgAAADAAAAAwCAYAAABXAvmHAAAACXBIWXMAAAsTAAALEwEAmpwYAAACV0lEQVR4nO2YPYhTQRDHF9FGRBRBEcHkzSQqp5VX2HmNIIj9IWIjaCFWoldocZ3YeZrZFw8sFEQsLKy0s1AUETsbwS8Qxbs385I7EMXPyCbchRyP3Hu5vOxG9wfTbAiZ/3ztTpTyeDyeJID4CWpptI0fq2ECO5xvmRom0AuwjKn5jiyQPLLt0785VSDjuXNNiRnP/wsBpaqMjE02Vg+lAAg/b0bNdSR5Ua7KttynStbz5X9Hri18B0jeFi7XN6hhYYRm14GWL0syd9vKtOllOgWhHEgqPQjjPQOv9V56IyA5nvQ5kpw3pVQOZyCYmtmiJhurnBQAFB1JFLA0I5rngfgOUrzbKQHFkHemEdAWIq9zmza9TifQ/CytgJLmU8oFtk5/Wos0W0Idj6cWQHy32QugeQJJvmVJnU0D4u9Icmnxpgbij7adwu6RnkOS56DlHhCfK1Kt0JE+1wUElehw1/oznexsuWh503XmG8wUcLd8ohPLTgDUcsvN6PO70enGmhQC+KxtZzHR4nGVhjJF+x2M/gOVFpMmJK7ZdhoXjLhWqNaLKgtAfNO649oY/waKDqmsYCXa60jpTGR2flEE8X2LZfMHdXxGrYQdV+tBwjo3iKj/xJBPqn4QEB9tRWNQkZdXZZJ9qp+YNzYS/8o16sQ/kHjKPKP76nxbRDSGxO9zcP4rEF83u63Km9HW/XAMND9dSUZMjQPJQyQ5vT2c26hssKsyv6m5LRFfNJsQEr8E4g/NC9D0jFmIiGvmj6jm45D4Bmq5gJX4YOmKrLfitMfj8XhUCv4C/ORt+IwyXI0AAAAASUVORK5CYII=;" vertex="1" parent="Sqc4NOIPdQjfkk2DDo2A-74">
          <mxGeometry x="485" y="200" width="28" height="28" as="geometry" />
        </mxCell>
        <mxCell id="Sqc4NOIPdQjfkk2DDo2A-67" value="" style="shape=image;verticalLabelPosition=bottom;labelBackgroundColor=default;verticalAlign=top;aspect=fixed;imageAspect=0;image=https://upload.wikimedia.org/wikipedia/commons/1/1b/Traefik.logo.png;" vertex="1" parent="Sqc4NOIPdQjfkk2DDo2A-74">
          <mxGeometry x="358.4" y="240" width="30.45" height="42" as="geometry" />
        </mxCell>
        <mxCell id="Sqc4NOIPdQjfkk2DDo2A-69" value="" style="shape=image;verticalLabelPosition=bottom;labelBackgroundColor=default;verticalAlign=top;aspect=fixed;imageAspect=0;image=https://1000logos.net/wp-content/uploads/2022/07/Kubernetes-Logo.png;" vertex="1" parent="Sqc4NOIPdQjfkk2DDo2A-74">
          <mxGeometry x="740" y="205" width="101.33" height="57" as="geometry" />
        </mxCell>
        <mxCell id="Sqc4NOIPdQjfkk2DDo2A-72" value="&lt;b&gt;grupo6-egs-deti.ua.pt/&lt;/b&gt;" style="endArrow=classic;html=1;rounded=0;exitX=0.5;exitY=1;exitDx=0;exitDy=0;" edge="1" parent="Sqc4NOIPdQjfkk2DDo2A-74" source="Sqc4NOIPdQjfkk2DDo2A-51">
          <mxGeometry x="0.1429" y="70" width="50" height="50" relative="1" as="geometry">
            <mxPoint x="420" y="340" as="sourcePoint" />
            <mxPoint x="430" y="190" as="targetPoint" />
            <mxPoint as="offset" />
          </mxGeometry>
        </mxCell>
        <mxCell id="Sqc4NOIPdQjfkk2DDo2A-73" value="" style="endArrow=classic;html=1;rounded=0;entryX=0.5;entryY=0;entryDx=0;entryDy=0;endFill=1;startArrow=classic;startFill=1;" edge="1" parent="Sqc4NOIPdQjfkk2DDo2A-74" target="Sqc4NOIPdQjfkk2DDo2A-63">
          <mxGeometry width="50" height="50" relative="1" as="geometry">
            <mxPoint x="430" y="190" as="sourcePoint" />
            <mxPoint x="190" y="350" as="targetPoint" />
          </mxGeometry>
        </mxCell>
      </root>
    </mxGraphModel>
  </diagram>
</mxfile>
